<mxfile host="65bd71144e">
    <diagram id="qcCNAyBQ80MC03by-rah" name="Page-1">
        <mxGraphModel dx="574" dy="794" grid="0" gridSize="10" guides="1" tooltips="1" connect="1" arrows="1" fold="1" page="0" pageScale="1" pageWidth="850" pageHeight="1100" background="#ffffff" math="0" shadow="0">
            <root>
                <mxCell id="0"/>
                <mxCell id="1" parent="0"/>
                <mxCell id="2" value="" style="html=1;fillColor=none;strokeWidth=2;strokeColor=#000000;labelBackgroundColor=none;fontFamily=Times New Roman;fontSize=18;" parent="1" vertex="1">
                    <mxGeometry x="487" y="-85" width="268" height="127" as="geometry"/>
                </mxCell>
                <mxCell id="3" value="&lt;font style=&quot;font-size: 18px;&quot;&gt;&lt;b style=&quot;font-size: 18px;&quot;&gt;Users&lt;/b&gt;&lt;/font&gt;" style="text;html=1;align=center;verticalAlign=middle;resizable=0;points=[];autosize=1;strokeColor=none;fillColor=none;fontColor=#0a0a0a;fontFamily=Times New Roman;fontSize=18;" parent="1" vertex="1">
                    <mxGeometry x="591.5" y="-82" width="61" height="34" as="geometry"/>
                </mxCell>
                <mxCell id="4" value="&lt;b style=&quot;font-size: 18px;&quot;&gt;id int&lt;/b&gt;" style="text;html=1;align=center;verticalAlign=middle;resizable=0;points=[];autosize=1;strokeColor=none;fillColor=none;fontFamily=Times New Roman;fontColor=#0a0a0a;fontSize=18;" parent="1" vertex="1">
                    <mxGeometry x="529" y="-50" width="59" height="34" as="geometry"/>
                </mxCell>
                <mxCell id="5" value="email (45) varchar" style="text;html=1;align=center;verticalAlign=middle;resizable=0;points=[];autosize=1;strokeColor=none;fillColor=none;fontFamily=Times New Roman;fontColor=#0a0a0a;fontSize=18;" parent="1" vertex="1">
                    <mxGeometry x="530" y="-21" width="151" height="34" as="geometry"/>
                </mxCell>
                <mxCell id="6" value="password (255) varchar" style="text;html=1;align=center;verticalAlign=middle;resizable=0;points=[];autosize=1;strokeColor=none;fillColor=none;fontFamily=Times New Roman;fontColor=#0a0a0a;fontSize=18;" parent="1" vertex="1">
                    <mxGeometry x="530" y="5" width="188" height="34" as="geometry"/>
                </mxCell>
                <mxCell id="7" value="" style="endArrow=none;html=1;fontFamily=Times New Roman;fontColor=#0a0a0a;strokeWidth=2;strokeColor=#000000;entryX=0.998;entryY=0.342;entryDx=0;entryDy=0;entryPerimeter=0;fontSize=18;" parent="1" edge="1">
                    <mxGeometry width="50" height="50" relative="1" as="geometry">
                        <mxPoint x="487" y="-22" as="sourcePoint"/>
                        <mxPoint x="754.4639999999999" y="-21.912000000000035" as="targetPoint"/>
                    </mxGeometry>
                </mxCell>
                <mxCell id="8" value="" style="endArrow=none;html=1;fontFamily=Times New Roman;fontColor=#0a0a0a;strokeWidth=2;strokeColor=#000000;entryX=0.998;entryY=0.342;entryDx=0;entryDy=0;entryPerimeter=0;fontSize=18;" parent="1" edge="1">
                    <mxGeometry width="50" height="50" relative="1" as="geometry">
                        <mxPoint x="487.53999999999996" y="-49" as="sourcePoint"/>
                        <mxPoint x="755.0039999999999" y="-48.912000000000035" as="targetPoint"/>
                    </mxGeometry>
                </mxCell>
                <mxCell id="9" value="" style="endArrow=none;html=1;strokeColor=#000000;strokeWidth=2;fontFamily=Times New Roman;fontColor=#0a0a0a;exitX=0.16;exitY=0.998;exitDx=0;exitDy=0;exitPerimeter=0;fontSize=18;" parent="1" source="2" edge="1">
                    <mxGeometry width="50" height="50" relative="1" as="geometry">
                        <mxPoint x="529.1700000000001" y="29" as="sourcePoint"/>
                        <mxPoint x="529.1700000000001" y="-49" as="targetPoint"/>
                    </mxGeometry>
                </mxCell>
                <mxCell id="10" value="&lt;b style=&quot;font-size: 18px;&quot;&gt;PK&lt;/b&gt;" style="text;html=1;align=center;verticalAlign=middle;resizable=0;points=[];autosize=1;strokeColor=none;fillColor=none;fontFamily=Times New Roman;fontColor=#0a0a0a;fontSize=18;" parent="1" vertex="1">
                    <mxGeometry x="487" y="-52" width="43" height="34" as="geometry"/>
                </mxCell>
                <mxCell id="11" value="" style="html=1;fillColor=none;strokeWidth=2;strokeColor=#000000;fontFamily=Times New Roman;fontSize=18;" parent="1" vertex="1">
                    <mxGeometry x="213" y="-304" width="268" height="164" as="geometry"/>
                </mxCell>
                <mxCell id="12" value="&lt;font style=&quot;font-size: 18px;&quot;&gt;&lt;b style=&quot;font-size: 18px;&quot;&gt;Employees&lt;/b&gt;&lt;/font&gt;" style="text;html=1;align=center;verticalAlign=middle;resizable=0;points=[];autosize=1;strokeColor=none;fillColor=none;fontColor=#0a0a0a;fontFamily=Times New Roman;fontSize=18;" parent="1" vertex="1">
                    <mxGeometry x="299.5" y="-301" width="101" height="34" as="geometry"/>
                </mxCell>
                <mxCell id="13" value="&lt;b style=&quot;font-size: 18px;&quot;&gt;idemployees int&lt;/b&gt;" style="text;html=1;align=center;verticalAlign=middle;resizable=0;points=[];autosize=1;strokeColor=none;fillColor=none;fontFamily=Times New Roman;fontColor=#0a0a0a;fontSize=18;" parent="1" vertex="1">
                    <mxGeometry x="255" y="-269" width="138" height="34" as="geometry"/>
                </mxCell>
                <mxCell id="14" value="name (45) varchar" style="text;html=1;align=center;verticalAlign=middle;resizable=0;points=[];autosize=1;strokeColor=none;fillColor=none;fontFamily=Times New Roman;fontColor=#0a0a0a;fontSize=18;" parent="1" vertex="1">
                    <mxGeometry x="255" y="-223" width="150" height="34" as="geometry"/>
                </mxCell>
                <mxCell id="15" value="position (45) varchar" style="text;html=1;align=center;verticalAlign=middle;resizable=0;points=[];autosize=1;strokeColor=none;fillColor=none;fontFamily=Times New Roman;fontColor=#0a0a0a;fontSize=18;" parent="1" vertex="1">
                    <mxGeometry x="255" y="-197" width="169" height="34" as="geometry"/>
                </mxCell>
                <mxCell id="16" value="" style="endArrow=none;html=1;fontFamily=Times New Roman;fontColor=#0a0a0a;strokeWidth=2;strokeColor=#000000;entryX=0.998;entryY=0.342;entryDx=0;entryDy=0;entryPerimeter=0;fontSize=18;" parent="1" edge="1">
                    <mxGeometry width="50" height="50" relative="1" as="geometry">
                        <mxPoint x="213" y="-241" as="sourcePoint"/>
                        <mxPoint x="480.46399999999994" y="-240.91200000000003" as="targetPoint"/>
                    </mxGeometry>
                </mxCell>
                <mxCell id="17" value="" style="endArrow=none;html=1;fontFamily=Times New Roman;fontColor=#0a0a0a;strokeWidth=2;strokeColor=#000000;entryX=0.998;entryY=0.342;entryDx=0;entryDy=0;entryPerimeter=0;fontSize=18;" parent="1" edge="1">
                    <mxGeometry width="50" height="50" relative="1" as="geometry">
                        <mxPoint x="213.53999999999996" y="-268" as="sourcePoint"/>
                        <mxPoint x="481.0039999999999" y="-267.91200000000003" as="targetPoint"/>
                    </mxGeometry>
                </mxCell>
                <mxCell id="18" value="" style="endArrow=none;html=1;strokeColor=#000000;strokeWidth=2;fontFamily=Times New Roman;fontColor=#0a0a0a;exitX=0.16;exitY=0.998;exitDx=0;exitDy=0;exitPerimeter=0;fontSize=18;" parent="1" source="11" edge="1">
                    <mxGeometry width="50" height="50" relative="1" as="geometry">
                        <mxPoint x="255.17000000000007" y="-190" as="sourcePoint"/>
                        <mxPoint x="255.17000000000007" y="-268" as="targetPoint"/>
                    </mxGeometry>
                </mxCell>
                <mxCell id="19" value="&lt;b style=&quot;font-size: 18px;&quot;&gt;PK&lt;/b&gt;" style="text;html=1;align=center;verticalAlign=middle;resizable=0;points=[];autosize=1;strokeColor=none;fillColor=none;fontFamily=Times New Roman;fontColor=#0a0a0a;fontSize=18;" parent="1" vertex="1">
                    <mxGeometry x="212" y="-271" width="43" height="34" as="geometry"/>
                </mxCell>
                <mxCell id="21" value="" style="html=1;fillColor=none;strokeWidth=2;strokeColor=#000000;fontFamily=Times New Roman;fontSize=18;" parent="1" vertex="1">
                    <mxGeometry x="487" y="-305" width="268" height="200" as="geometry"/>
                </mxCell>
                <mxCell id="22" value="&lt;font style=&quot;font-size: 18px;&quot;&gt;&lt;b style=&quot;font-size: 18px;&quot;&gt;Tasks&lt;/b&gt;&lt;/font&gt;" style="text;html=1;align=center;verticalAlign=middle;resizable=0;points=[];autosize=1;strokeColor=none;fillColor=none;fontColor=#0a0a0a;fontFamily=Times New Roman;fontSize=18;" parent="1" vertex="1">
                    <mxGeometry x="592.5" y="-302" width="61" height="34" as="geometry"/>
                </mxCell>
                <mxCell id="23" value="&lt;b style=&quot;font-size: 18px;&quot;&gt;idtasks int&lt;/b&gt;" style="text;html=1;align=center;verticalAlign=middle;resizable=0;points=[];autosize=1;strokeColor=none;fillColor=none;fontFamily=Times New Roman;fontColor=#0a0a0a;fontSize=18;" parent="1" vertex="1">
                    <mxGeometry x="529" y="-270" width="98" height="34" as="geometry"/>
                </mxCell>
                <mxCell id="24" value="topic (45) varchar" style="text;html=1;align=center;verticalAlign=middle;resizable=0;points=[];autosize=1;strokeColor=none;fillColor=none;fontFamily=Times New Roman;fontColor=#0a0a0a;fontSize=18;" parent="1" vertex="1">
                    <mxGeometry x="529" y="-244" width="147" height="34" as="geometry"/>
                </mxCell>
                <mxCell id="25" value="deadline datetime" style="text;html=1;align=center;verticalAlign=middle;resizable=0;points=[];autosize=1;strokeColor=none;fillColor=none;fontFamily=Times New Roman;fontColor=#0a0a0a;fontSize=18;" parent="1" vertex="1">
                    <mxGeometry x="530" y="-218" width="145" height="34" as="geometry"/>
                </mxCell>
                <mxCell id="26" value="" style="endArrow=none;html=1;fontFamily=Times New Roman;fontColor=#0a0a0a;strokeWidth=2;strokeColor=#000000;entryX=0.998;entryY=0.342;entryDx=0;entryDy=0;entryPerimeter=0;fontSize=18;" parent="1" edge="1">
                    <mxGeometry width="50" height="50" relative="1" as="geometry">
                        <mxPoint x="487" y="-242" as="sourcePoint"/>
                        <mxPoint x="754.4639999999999" y="-241.91200000000003" as="targetPoint"/>
                    </mxGeometry>
                </mxCell>
                <mxCell id="27" value="" style="endArrow=none;html=1;fontFamily=Times New Roman;fontColor=#0a0a0a;strokeWidth=2;strokeColor=#000000;entryX=0.998;entryY=0.342;entryDx=0;entryDy=0;entryPerimeter=0;fontSize=18;" parent="1" edge="1">
                    <mxGeometry width="50" height="50" relative="1" as="geometry">
                        <mxPoint x="487.53999999999996" y="-269" as="sourcePoint"/>
                        <mxPoint x="755.0039999999999" y="-268.91200000000003" as="targetPoint"/>
                    </mxGeometry>
                </mxCell>
                <mxCell id="28" value="" style="endArrow=none;html=1;strokeColor=#000000;strokeWidth=2;fontFamily=Times New Roman;fontColor=#0a0a0a;exitX=0.16;exitY=0.998;exitDx=0;exitDy=0;exitPerimeter=0;fontSize=18;" parent="1" source="21" edge="1">
                    <mxGeometry width="50" height="50" relative="1" as="geometry">
                        <mxPoint x="529.1700000000001" y="-191" as="sourcePoint"/>
                        <mxPoint x="529.1700000000001" y="-269" as="targetPoint"/>
                    </mxGeometry>
                </mxCell>
                <mxCell id="29" value="&lt;b style=&quot;font-size: 18px;&quot;&gt;PK&lt;/b&gt;" style="text;html=1;align=center;verticalAlign=middle;resizable=0;points=[];autosize=1;strokeColor=none;fillColor=none;fontFamily=Times New Roman;fontColor=#0a0a0a;fontSize=18;" parent="1" vertex="1">
                    <mxGeometry x="487" y="-272" width="43" height="34" as="geometry"/>
                </mxCell>
                <mxCell id="30" value="executor (45) varchar" style="text;html=1;align=center;verticalAlign=middle;resizable=0;points=[];autosize=1;strokeColor=none;fillColor=none;fontFamily=Times New Roman;fontColor=#0a0a0a;fontSize=18;" parent="1" vertex="1">
                    <mxGeometry x="530" y="-192" width="173" height="34" as="geometry"/>
                </mxCell>
                <mxCell id="31" value="comment (500) varchar" style="text;html=1;align=center;verticalAlign=middle;resizable=0;points=[];autosize=1;strokeColor=none;fillColor=none;fontFamily=Times New Roman;fontColor=#0a0a0a;fontSize=18;" parent="1" vertex="1">
                    <mxGeometry x="530" y="-166" width="187" height="34" as="geometry"/>
                </mxCell>
                <mxCell id="32" value="status (45) varchar" style="text;html=1;align=center;verticalAlign=middle;resizable=0;points=[];autosize=1;strokeColor=none;fillColor=none;fontFamily=Times New Roman;fontColor=#0a0a0a;fontSize=18;" parent="1" vertex="1">
                    <mxGeometry x="530" y="-140" width="152" height="34" as="geometry"/>
                </mxCell>
                <mxCell id="34" value="" style="endArrow=diamond;html=1;strokeColor=#000000;strokeWidth=1;fontFamily=Times New Roman;fontColor=#0a0a0a;endFill=1;exitX=0.5;exitY=1;exitDx=0;exitDy=0;fontSize=18;" parent="1" source="21" target="2" edge="1">
                    <mxGeometry width="50" height="50" relative="1" as="geometry">
                        <mxPoint x="252" y="225" as="sourcePoint"/>
                        <mxPoint x="476" y="288" as="targetPoint"/>
                    </mxGeometry>
                </mxCell>
                <mxCell id="36" value="&lt;b style=&quot;font-size: 18px;&quot;&gt;idusers not null&lt;/b&gt;" style="text;html=1;align=center;verticalAlign=middle;resizable=0;points=[];autosize=1;strokeColor=none;fillColor=none;fontFamily=Times New Roman;fontColor=#0a0a0a;fontSize=18;" parent="1" vertex="1">
                    <mxGeometry x="255" y="-243" width="137" height="34" as="geometry"/>
                </mxCell>
                <mxCell id="37" value="" style="endArrow=diamond;html=1;strokeColor=#000000;strokeWidth=1;fontFamily=Times New Roman;fontColor=#0a0a0a;endFill=1;exitX=0;exitY=0.5;exitDx=0;exitDy=0;dashed=1;startArrow=diamond;startFill=0;entryX=0.5;entryY=1;entryDx=0;entryDy=0;rounded=0;fontSize=18;" parent="1" source="2" target="11" edge="1">
                    <mxGeometry width="50" height="50" relative="1" as="geometry">
                        <mxPoint x="348" y="-83" as="sourcePoint"/>
                        <mxPoint x="348" y="15" as="targetPoint"/>
                        <Array as="points">
                            <mxPoint x="347" y="-21"/>
                        </Array>
                    </mxGeometry>
                </mxCell>
            </root>
        </mxGraphModel>
    </diagram>
</mxfile>